<?xml version="1.0" encoding="utf-8"?>
<!-- Generator: Adobe Illustrator 25.2.0, SVG Export Plug-In . SVG Version: 6.00 Build 0)  -->
<svg version="1.1" id="IOR_x5F_black" xmlns="http://www.w3.org/2000/svg" xmlns:xlink="http://www.w3.org/1999/xlink" x="0px"
	 y="0px" viewBox="0 0 500 500" style="enable-background:new 0 0 500 500;" xml:space="preserve">
<style type="text/css">
	.st0{fill:none;}
	.st1{fill:#FFFFFF;}
</style>
<g>
	<g>
		<rect x="0" y="0" width="500" height="500"/>
	</g>
</g>
<path class="st0" d="M389,318.6h-28.3v36.9h26.2c14.5,0,25-6.3,25-17.7C411.9,326.5,404.7,318.6,389,318.6z"/>
<path class="st1" d="M202.5,315.3c-20.8,0-31.8,14.1-31.8,57.9c0,48.5,14.1,57.9,31.8,57.9c17.5,0,31.8-9.3,31.8-57.9
	C234.3,327.3,222.6,315.3,202.5,315.3z"/>
<path d="M202.5,315.3c-20.8,0-31.8,14.1-31.8,57.9c0,48.5,14.1,57.9,31.8,57.9c17.5,0,31.8-9.3,31.8-57.9
	C234.3,327.3,222.6,315.3,202.5,315.3z"/>
<g>
	<path class="st0" d="M389,318.6h-28.3v36.9h26.2c14.5,0,25-6.3,25-17.7C411.9,326.5,404.7,318.6,389,318.6z"/>
	<path class="st0" d="M202.5,315.3c-20.8,0-31.8,14.1-31.8,57.9c0,48.5,14.1,57.9,31.8,57.9c17.5,0,31.8-9.3,31.8-57.9
		C234.3,327.3,222.6,315.3,202.5,315.3z"/>
	<path class="st1" d="M465.1,335.9c0-22.9-11.4-50.9-70.3-50.9h-84.5v70.3l-22.6,0c-6.2-47.1-37.2-75.8-85.2-75.8
		c-48,0-79.1,28.7-85.2,75.9l-65.8,0v106.1h44.1V389l21.5,0c5.5,48.4,36.7,78,85.5,78c48.7,0,80-29.6,85.5-78l22.4,0v72.5h50.4
		v-72.4h22.9l25,72.4h56.1l-32.9-81.2C451.4,372.5,465.1,357.8,465.1,335.9z M202.5,431.1c-17.7,0-31.8-9.3-31.8-57.9
		c0-43.8,11-57.9,31.8-57.9c20.1,0,31.8,12,31.8,57.9C234.3,421.8,219.9,431.1,202.5,431.1z M386.9,355.5h-26.2v-36.9H389
		c15.6,0,22.9,7.9,22.9,19.1C411.9,349.2,401.4,355.5,386.9,355.5z"/>
	<path class="st1" d="M73.5,338.6c17,0,30.8-13.8,30.8-30.8s-13.8-30.8-30.8-30.8c-17,0-30.8,13.8-30.8,30.8S56.5,338.6,73.5,338.6z
		"/>
</g>
</svg>
